<?xml version="1.0" encoding="utf-8"?>
<!-- Generator: Adobe Illustrator 24.2.0, SVG Export Plug-In . SVG Version: 6.00 Build 0)  -->
<svg version="1.1" id="Livello_1" xmlns="http://www.w3.org/2000/svg" xmlns:xlink="http://www.w3.org/1999/xlink" x="0px" y="0px"
	 viewBox="0 0 512 512" style="enable-background:new 0 0 512 512;" xml:space="preserve">
<style type="text/css">
	.st0{clip-path:url(#SVGID_2_);fill:#F7E27E;}
	.st1{clip-path:url(#SVGID_2_);}
	.st2{fill:#002A32;}
	.st3{display:none;}
	.st4{display:inline;}
	.st5{fill:#F6E27E;}
	.st6{fill:#F5E27F;}
	.st7{fill:#F7E27E;}
</style>
<g>
	<defs>
		<circle id="SVGID_1_" cx="256" cy="256" r="250.5"/>
	</defs>
	<clipPath id="SVGID_2_">
		<use xlink:href="#SVGID_1_"  style="overflow:visible;"/>
	</clipPath>
	<circle class="st0" cx="256" cy="256" r="250.5"/>
	<g class="st1">
		<path class="st2" d="M370,397.97c19.86-50.12-11.66-265.53-11.66-265.53s66.21-47.5,9.62-88.63
			c-61.73-44.87-208.6,23.09-229.07,71.15c-11.54,27.1-5.41,76.96-6.35,139.04c-3.39-0.49-9.41-3.5-18.23-0.88
			c-15.39,4.57-23.59,23.29-18.2,42.2c5.39,18.91,22.27,30.67,37.71,26.27c0.89-0.25,1.67-0.72,2.51-1.06
			c0.81,5.83,1.16,171.89,1.16,171.89l92.19,63.9l87.19-54.79V450.5C316.89,450.5,352.45,442.25,370,397.97z"/>
		<g class="st3">
			<g class="st4">
				<path class="st5" d="M210,272.2c-14.16,0-28.57-2.68-37.15-8.6c-17.73-12.23-23-55.8-21.6-68.66
					c1.91-17.62,24.47-21.93,57.76-22.97c48.1-1.49,53.94,16.53,54.21,24.36l0.01,0.17l0,0.17c-0.01,0.57-0.34,14.04-2.36,28.86
					c-3.9,28.6-10.4,35.94-14.95,38.97l0,0C238.47,269.43,224.37,272.2,210,272.2z M214.37,183.36c-1.62,0-3.28,0.03-5.01,0.08
					c-30.6,0.96-45.88,5.13-46.71,12.74c-1.32,12.18,4.8,49.76,16.71,57.97c13.01,8.97,49.03,8.2,60.18,0.78
					c6.79-4.52,11.6-33.76,12.19-58.34C251.34,189.81,239.64,183.36,214.37,183.36z"/>
			</g>
			<g class="st4">
				<path class="st5" d="M332.07,272.55c-13.3,0-26.63-2.67-33.84-7.99c-12.29-9.07-19.51-53.67-21.43-67.12l-0.05-0.61
					c-0.16-4.56,1.42-8.71,4.57-11.99c6.88-7.17,21.49-10.58,45.99-10.74c19.46-0.13,45.66,1.96,48.72,21.43
					c0.85,5.4,4.22,58.65-10.76,69.33C358.06,270,345.07,272.55,332.07,272.55z M288.21,196.17c3.63,25.22,11.07,54.91,16.83,59.16
					c10.38,7.66,42.92,7.77,53.55,0.19l0,0c1.78-1.27,5.15-8.27,6.46-26.44c0.95-13.15,0.39-26.9-0.37-31.76
					c-1.25-7.94-13.86-11.91-37.3-11.73c-27.02,0.17-35.27,4.59-37.78,7.21C288.63,193.79,288.21,194.81,288.21,196.17z"/>
			</g>
			<g class="st4">
				<path class="st5" d="M261.46,200.66l-7.99-8.24c6.77-6.61,21.17-12.01,33.11,0.19l-8.2,8.03
					C270.83,192.94,263.52,198.71,261.46,200.66z"/>
			</g>
			<g class="st4">
				<polygon class="st6" points="383,192.71 370.47,192.99 371.17,203.72 382.19,201.36 				"/>
				<path class="st5" d="M371.17,209.46c-1.24,0-2.46-0.4-3.46-1.16c-1.33-1.01-2.16-2.54-2.27-4.21l-0.7-10.73
					c-0.1-1.56,0.44-3.1,1.49-4.25c1.06-1.15,2.54-1.83,4.1-1.86l12.53-0.29c1.63-0.04,3.21,0.63,4.33,1.82
					c1.12,1.2,1.67,2.82,1.52,4.45l-0.81,8.65c-0.23,2.5-2.06,4.56-4.52,5.08l-11.02,2.36
					C371.97,209.42,371.57,209.46,371.17,209.46z"/>
			</g>
			<g class="st4">
				<polygon class="st6" points="143.64,193.8 156.16,193.27 156.16,204.02 145.01,202.38 				"/>
				<path class="st5" d="M156.16,209.76c-0.28,0-0.55-0.02-0.83-0.06l-11.16-1.64c-2.48-0.36-4.44-2.3-4.84-4.78l-1.37-8.58
					c-0.26-1.62,0.19-3.27,1.22-4.54c1.04-1.27,2.57-2.03,4.2-2.1l12.52-0.53c1.57-0.05,3.09,0.51,4.21,1.59
					c1.13,1.08,1.77,2.58,1.77,4.14l0,10.75c0,1.67-0.72,3.25-1.99,4.34C158.87,209.27,157.53,209.76,156.16,209.76z"/>
			</g>
		</g>
		<path class="st5" d="M387.2,188.79c-1.12-1.2-2.7-1.86-4.33-1.82l-10.18,0.23c-8.28-11.76-29.18-13.2-45.4-13.1
			c-24.49,0.16-39.11,3.57-45.99,10.74c-0.76,0.79-1.42,1.63-1.99,2.51c-6.6-3.12-13.32-2.24-18.7,0.23
			c-4.72-7.96-17.58-16.67-51.61-15.62c-28.1,0.88-48.55,4.09-55.4,15.66l-10.21,0.43c-1.64,0.07-3.16,0.83-4.2,2.1
			c-1.04,1.27-1.48,2.92-1.22,4.54l1.37,8.58c0.39,2.48,2.35,4.41,4.84,4.78l7.35,1.08c1.69,18.26,7.97,45.25,21.33,54.46
			c8.58,5.92,23,8.6,37.15,8.6c14.37,0,28.47-2.76,35.91-7.71c4.55-3.03,11.05-10.36,14.95-38.97c1.52-11.15,2.08-21.53,2.27-26.24
			c2.91-2.1,8.29-4.53,13.96,0.19c2.29,15.4,9.4,56.44,21.13,65.1c7.21,5.32,20.54,7.99,33.84,7.99c13.01,0,25.99-2.55,33.19-7.69
			c10.98-7.83,12.1-38.53,11.58-56.49l6.56-1.4c2.45-0.53,4.28-2.58,4.52-5.08l0.81-8.65C388.87,191.61,388.31,189.99,387.2,188.79z
			 M239.55,254.93c-11.15,7.42-47.17,8.19-60.18-0.78c-11.91-8.21-18.03-45.79-16.71-57.97c0.83-7.61,16.1-11.78,46.71-12.74
			c1.73-0.05,3.39-0.08,5.01-0.08c25.26,0,36.97,6.45,37.36,13.23C251.15,221.17,246.34,250.41,239.55,254.93z M365.05,229.07
			c-1.31,18.17-4.67,25.17-6.46,26.44c-10.64,7.58-43.17,7.47-53.55-0.19c-5.76-4.25-13.2-33.94-16.83-59.16
			c0-1.36,0.43-2.38,1.38-3.37c2.51-2.62,10.76-7.04,37.78-7.21c23.44-0.18,36.05,3.8,37.3,11.73
			C365.44,202.18,365.99,215.92,365.05,229.07z"/>
		<g>
			<path class="st2" d="M382.87,186.97l-10.18,0.23c-2.02-2.87-4.8-5.12-8.08-6.89c2.53,20.96,5.38,46.84,7.66,73.56
				c4.45-12.84,4.94-32.5,4.56-45.5l6.56-1.4c2.45-0.53,4.28-2.58,4.52-5.08l0.81-8.65c0.15-1.63-0.4-3.25-1.52-4.45
				C386.08,187.59,384.49,186.93,382.87,186.97z"/>
			<path class="st2" d="M365.25,264.86c-7.2,5.13-20.18,7.69-33.19,7.69c-13.3,0-26.63-2.67-33.84-7.99
				c-11.74-8.66-18.85-49.69-21.13-65.1c-5.68-4.72-11.05-2.29-13.96-0.19c-0.19,4.7-0.75,15.09-2.27,26.24
				c-3.9,28.6-10.4,35.94-14.95,38.97c-7.43,4.95-21.53,7.71-35.91,7.71c-14.16,0-28.57-2.68-37.15-8.6
				c-13.36-9.21-19.64-36.21-21.33-54.46l-7.35-1.08c-2.48-0.36-4.44-2.3-4.84-4.78l-1.37-8.58c-0.26-1.62,0.19-3.27,1.22-4.54
				c1.04-1.27,2.57-2.03,4.2-2.1l10.21-0.43c6.85-11.57,27.3-14.78,55.4-15.66c34.03-1.06,46.9,7.66,51.61,15.62
				c5.38-2.47,12.1-3.35,18.7-0.23c0.57-0.88,1.23-1.72,1.99-2.51c6.88-7.17,21.49-10.58,45.99-10.74
				c12.26-0.08,27.18,0.73,37.32,6.21c-3.43-28.48-6.27-47.86-6.27-47.86s66.21-47.5,9.62-88.63
				c-61.73-44.87-208.6,23.09-229.07,71.15c-11.54,27.1-5.41,76.96-6.35,139.04c-3.39-0.49-9.41-3.5-18.23-0.88
				c-15.39,4.57-23.59,23.29-18.2,42.2c5.39,18.91,22.27,30.67,37.71,26.27c0.89-0.25,1.67-0.72,2.51-1.06
				c0.81,5.83,1.16,171.89,1.16,171.89l92.19,63.9l87.19-54.79V450.5c0,0,35.57-8.25,53.12-52.53c9.52-24.03,7.23-86.04,2.27-144.1
				C370.57,258.78,368.29,262.7,365.25,264.86z"/>
			<path class="st2" d="M214.37,183.36c-1.62,0-3.28,0.03-5.01,0.08c-30.6,0.96-45.88,5.13-46.71,12.74
				c-1.32,12.18,4.8,49.76,16.71,57.97c13.01,8.97,49.03,8.2,60.18,0.78c6.79-4.52,11.6-33.76,12.19-58.34
				C251.34,189.81,239.64,183.36,214.37,183.36z"/>
			<path class="st2" d="M327.37,185.58c-27.02,0.17-35.27,4.59-37.78,7.21c-0.96,1-1.38,2.02-1.38,3.37
				c3.63,25.22,11.07,54.91,16.83,59.16c10.38,7.66,42.92,7.77,53.55,0.19c1.78-1.27,5.15-8.27,6.46-26.44
				c0.95-13.15,0.39-26.9-0.37-31.76C363.42,189.38,350.81,185.4,327.37,185.58z"/>
		</g>
	</g>
	<g class="st1">
		<path class="st7" d="M256,516.07C112.6,516.07-4.07,399.4-4.07,256C-4.07,112.6,112.6-4.07,256-4.07S516.07,112.6,516.07,256
			C516.07,399.4,399.4,516.07,256,516.07z M256,15.07C123.15,15.07,15.07,123.15,15.07,256S123.15,496.93,256,496.93
			S496.93,388.85,496.93,256S388.85,15.07,256,15.07z"/>
	</g>
</g>
</svg>
