<?xml version="1.0" encoding="utf-8"?>
<!-- Generator: Adobe Illustrator 24.2.0, SVG Export Plug-In . SVG Version: 6.00 Build 0)  -->
<svg version="1.1" id="Livello_9" xmlns="http://www.w3.org/2000/svg" xmlns:xlink="http://www.w3.org/1999/xlink" x="0px" y="0px"
	 viewBox="0 0 474.48 474.48" style="enable-background:new 0 0 474.48 474.48;" xml:space="preserve">
<style type="text/css">
	.st0{clip-path:url(#SVGID_2_);}
	.st1{fill:#006977;}
	.st2{fill:#F6E27E;}
	.st3{fill:#BCBCBC;}
	.st4{fill:#002A32;}
	.st5{fill:#DBDBDB;}
	.st6{fill:#878787;}
	.st7{fill:#EFEFEF;}
	.st8{fill:#FFFFFF;}
	.st9{display:none;fill:#BABABA;}
	.st10{clip-path:url(#SVGID_5_);fill:#FFE0C7;}
	.st11{clip-path:url(#SVGID_7_);fill:#BC9C64;}
	.st12{clip-path:url(#SVGID_9_);fill:#466F91;}
	.st13{clip-path:url(#SVGID_11_);fill:#7FCDF4;}
	.st14{clip-path:url(#SVGID_13_);fill:#EABF73;}
	.st15{fill:#EABF73;}
	.st16{fill:#E5925A;}
</style>
<g>
	<g>
		<g>
			<g>
				<defs>
					<rect id="SVGID_1_" x="25.24" y="200.63" width="423.99" height="242.15"/>
				</defs>
				<clipPath id="SVGID_2_">
					<use xlink:href="#SVGID_1_"  style="overflow:visible;"/>
				</clipPath>
				<g class="st0">
					<g>
						<path class="st1" d="M301.2,434.06l-0.52-0.1L54.73,385.29l99-96.76c0.4-0.39,1.03-0.38,1.41,0.02
							c0.39,0.4,0.38,1.03-0.02,1.41l-96.28,94.11l241.71,47.83l95.62-93.47c0.4-0.39,1.03-0.38,1.41,0.02
							c0.39,0.4,0.38,1.03-0.02,1.41L301.2,434.06z"/>
					</g>
					<g>
						<path class="st1" d="M82.83,297.88c-0.26,0-0.52-0.1-0.72-0.3c-0.39-0.4-0.38-1.03,0.02-1.41l53.74-52.53
							c0.4-0.39,1.03-0.38,1.41,0.02c0.39,0.4,0.38,1.03-0.02,1.41L83.52,297.6C83.33,297.78,83.08,297.88,82.83,297.88z"/>
					</g>
					<g>
						<path class="st1" d="M111.72,455.7c-0.26,0-0.52-0.1-0.72-0.3c-0.39-0.4-0.38-1.03,0.02-1.41l49.41-48.28
							c0.4-0.39,1.03-0.38,1.41,0.02c0.39,0.4,0.38,1.03-0.02,1.41l-49.41,48.28C112.23,455.6,111.97,455.7,111.72,455.7z"/>
					</g>
					<g>
						<path class="st1" d="M17.85,384.09c-0.26,0-0.52-0.1-0.72-0.3c-0.39-0.4-0.38-1.03,0.02-1.41l41.12-40.19
							c0.4-0.39,1.03-0.38,1.41,0.02c0.39,0.4,0.38,1.03-0.02,1.41l-41.12,40.19C18.35,384,18.1,384.09,17.85,384.09z"/>
					</g>
					<g>
						<path class="st1" d="M66.02,434.35c-0.26,0-0.52-0.1-0.72-0.3c-0.39-0.4-0.38-1.03,0.02-1.41l39.49-38.6
							c0.4-0.39,1.03-0.38,1.41,0.02c0.39,0.4,0.38,1.03-0.02,1.41l-39.49,38.6C66.53,434.25,66.28,434.35,66.02,434.35z"/>
					</g>
					<g>
						<path class="st1" d="M371.4,383.81c-0.26,0-0.52-0.1-0.71-0.3c-0.39-0.4-0.38-1.03,0.02-1.41l69.69-68.12
							c0.4-0.39,1.03-0.38,1.41,0.02c0.39,0.4,0.38,1.03-0.02,1.41l-69.69,68.12C371.9,383.71,371.65,383.81,371.4,383.81z"/>
					</g>
					<g>
						<path class="st1" d="M134.92,308.41c-0.06,0-0.13-0.01-0.2-0.02l-87.96-17.41c-0.54-0.11-0.89-0.63-0.79-1.18
							c0.11-0.54,0.63-0.89,1.18-0.79l87.96,17.41c0.54,0.11,0.89,0.63,0.79,1.18C135.8,308.08,135.39,308.41,134.92,308.41z"/>
					</g>
					<g>
						<path class="st1" d="M184.31,436.25c-0.06,0-0.13-0.01-0.2-0.02L94.3,418.46l21.9-21.5c0.39-0.39,1.03-0.38,1.41,0.01
							c0.39,0.39,0.38,1.03-0.01,1.41l-19.2,18.85l86.1,17.04c0.54,0.11,0.89,0.63,0.79,1.18
							C185.2,435.92,184.78,436.25,184.31,436.25z"/>
					</g>
					<g>
						<path class="st1" d="M440.79,363.95c-0.06,0-0.13-0.01-0.2-0.02L384,352.73c-0.54-0.11-0.89-0.63-0.79-1.18
							c0.11-0.54,0.64-0.89,1.18-0.79l56.59,11.2c0.54,0.11,0.89,0.63,0.79,1.18C441.68,363.62,441.26,363.95,440.79,363.95z"/>
					</g>
					<g>
						<path class="st1" d="M391.75,388.08c-0.06,0-0.13-0.01-0.2-0.02l-35.78-7.08c-0.54-0.11-0.89-0.63-0.79-1.18
							c0.11-0.54,0.63-0.89,1.18-0.79l35.78,7.08c0.54,0.11,0.89,0.63,0.79,1.18C392.64,387.75,392.22,388.08,391.75,388.08z"/>
					</g>
					<g>
						<path class="st1" d="M92.68,349.46c-0.06,0-0.13-0.01-0.2-0.02l-73.55-14.55c-0.54-0.11-0.89-0.63-0.79-1.18
							c0.11-0.54,0.63-0.89,1.18-0.79l73.55,14.55c0.54,0.11,0.89,0.63,0.79,1.18C93.56,349.13,93.15,349.46,92.68,349.46z"/>
					</g>
					<polygon class="st2" points="62.01,306.85 80.21,310.45 114.76,276.12 96.56,272.52 					"/>
					<polygon class="st2" points="148.95,461.09 167.16,464.69 201.71,430.36 183.51,426.76 					"/>
					<polygon class="st2" points="310.32,414.52 345.53,421.96 371.4,396.26 336.18,388.82 					"/>
					
						<ellipse transform="matrix(0.9196 -0.3928 0.3928 0.9196 -130.1618 50.1258)" class="st2" cx="57.4" cy="343.11" rx="14.94" ry="10.02"/>
					
						<ellipse transform="matrix(0.9196 -0.3928 0.3928 0.9196 -121.4368 184.7357)" class="st2" cx="390.67" cy="389.09" rx="11.73" ry="7.87"/>
				</g>
			</g>
		</g>
		<g>
			<polygon class="st3" points="402.05,206.23 177.96,162.25 160.05,293.88 384.14,337.86 			"/>
			<polygon class="st4" points="393.74,213.52 183.37,172.23 167.5,287.02 377.88,328.31 			"/>
			<polygon class="st5" points="72.4,379.6 296.14,423.88 384.14,337.87 160.39,293.59 			"/>
			<polygon class="st6" points="121,347.12 315.26,385.56 357.25,344.52 162.98,306.08 			"/>
			<polygon class="st3" points="165.17,391.42 222.64,402.8 245.37,380.58 187.9,369.2 			"/>
		</g>
		<g>
			<rect x="61.27" y="30.71" class="st2" width="110.32" height="68.06"/>
			<rect x="61.27" y="39.86" class="st7" width="12.97" height="58.9"/>
			<rect x="61.27" y="30.71" class="st5" width="110.32" height="10.09"/>
			<circle class="st8" cx="67.43" cy="36.05" r="2.1"/>
			<circle class="st8" cx="74.25" cy="36.05" r="2.1"/>
			<circle class="st8" cx="81.06" cy="36.05" r="2.1"/>
			<path class="st8" d="M154.74,92.65H140.5c-1.99,0-3.61-1.62-3.61-3.61v-0.46c0-1.99,1.62-3.61,3.61-3.61h14.24
				c1.99,0,3.61,1.62,3.61,3.61v0.46C158.35,91.03,156.73,92.65,154.74,92.65z"/>
			<path class="st4" d="M154.35,51.39H81.94c-0.48,0-0.88-0.4-0.88-0.88V50.4c0-0.48,0.4-0.88,0.88-0.88h72.41
				c0.48,0,0.88,0.4,0.88,0.88v0.11C155.23,51,154.84,51.39,154.35,51.39z"/>
			<path class="st4" d="M154.35,59.55H81.94c-0.48,0-0.88-0.4-0.88-0.88v-0.11c0-0.48,0.4-0.88,0.88-0.88h72.41
				c0.48,0,0.88,0.4,0.88,0.88v0.11C155.23,59.15,154.84,59.55,154.35,59.55z"/>
			<path class="st4" d="M154.35,67.7H81.94c-0.48,0-0.88-0.4-0.88-0.88v-0.11c0-0.48,0.4-0.88,0.88-0.88h72.41
				c0.48,0,0.88,0.4,0.88,0.88v0.11C155.23,67.31,154.84,67.7,154.35,67.7z"/>
			<path class="st4" d="M154.35,75.86H81.94c-0.48,0-0.88-0.4-0.88-0.88v-0.11c0-0.48,0.4-0.88,0.88-0.88h72.41
				c0.48,0,0.88,0.4,0.88,0.88v0.11C155.23,75.46,154.84,75.86,154.35,75.86z"/>
			<polygon class="st2" points="152.2,95.86 152.2,117.75 128.23,95.1 			"/>
		</g>
		<g>
			<polygon class="st2" points="424.62,238.08 335.88,221.58 340.51,169.52 429.25,186.02 			"/>
			<polygon class="st7" points="335.88,221.58 346.31,223.52 350.32,178.47 339.89,176.53 			"/>
			<polygon class="st5" points="339.83,177.24 428.57,193.74 429.25,186.02 340.51,169.52 			"/>
			
				<ellipse transform="matrix(0.5882 -0.8087 0.8087 0.5882 0.9594 350.9621)" class="st8" cx="345.1" cy="174.54" rx="1.57" ry="1.76"/>
			
				<ellipse transform="matrix(0.5882 -0.8087 0.8087 0.5882 2.3897 355.8166)" class="st8" cx="350.58" cy="175.56" rx="1.57" ry="1.76"/>
			
				<ellipse transform="matrix(0.5882 -0.8087 0.8087 0.5882 3.8291 360.6725)" class="st8" cx="356.07" cy="176.58" rx="1.57" ry="1.76"/>
			<path class="st4" d="M414.04,199.28l-58.38-10.85c-0.35-0.07-0.61-0.39-0.58-0.73l0.02-0.22c0.03-0.33,0.34-0.55,0.69-0.49
				l58.38,10.85c0.35,0.07,0.61,0.39,0.58,0.73l-0.02,0.22C414.71,199.12,414.4,199.34,414.04,199.28z"/>
			<path class="st4" d="M413.49,205.52l-58.38-10.85c-0.35-0.07-0.61-0.39-0.58-0.73l0.02-0.22c0.03-0.33,0.34-0.55,0.69-0.49
				l58.38,10.85c0.35,0.07,0.61,0.39,0.58,0.73l-0.02,0.22C414.15,205.36,413.84,205.58,413.49,205.52z"/>
			<path class="st4" d="M412.93,211.75l-58.38-10.85c-0.35-0.07-0.61-0.39-0.58-0.73l0.02-0.22c0.03-0.33,0.34-0.55,0.69-0.49
				l58.38,10.85c0.35,0.07,0.61,0.39,0.58,0.73l-0.02,0.22C413.6,211.6,413.28,211.82,412.93,211.75z"/>
			<path class="st4" d="M412.38,217.99L354,207.14c-0.35-0.07-0.61-0.39-0.58-0.73l0.02-0.22c0.03-0.33,0.34-0.55,0.69-0.49
				l58.38,10.85c0.35,0.07,0.61,0.39,0.58,0.73l-0.02,0.22C413.04,217.84,412.73,218.06,412.38,217.99z"/>
		</g>
		<g>
			<polygon class="st2" points="409.71,304.88 341.2,292.14 344.78,251.95 413.29,264.68 			"/>
			<polygon class="st5" points="344.25,257.91 412.76,270.64 413.29,264.68 344.78,251.95 			"/>
			
				<ellipse transform="matrix(0.5882 -0.8087 0.8087 0.5882 -63.4517 387.0346)" class="st8" cx="348.32" cy="255.82" rx="1.21" ry="1.36"/>
			
				<ellipse transform="matrix(0.5882 -0.8087 0.8087 0.5882 -62.3396 390.7861)" class="st8" cx="352.56" cy="256.61" rx="1.21" ry="1.36"/>
			
				<ellipse transform="matrix(0.5882 -0.8087 0.8087 0.5882 -61.2351 394.5273)" class="st8" cx="356.78" cy="257.39" rx="1.21" ry="1.36"/>
			<path class="st8" d="M399.79,299.36l-9.28-1.73c-1.11-0.21-1.95-1.24-1.85-2.3l0.06-0.68c0.09-1.06,1.08-1.76,2.2-1.55l9.28,1.73
				c1.11,0.21,1.95,1.24,1.85,2.3l-0.06,0.68C401.89,298.87,400.9,299.57,399.79,299.36z"/>
			<path class="st4" d="M400.26,275.08l-45.08-8.38c-0.27-0.05-0.51,0.12-0.54,0.38l-0.01,0.17l-0.84,9.47l-0.01,0.17
				c-0.02,0.26,0.18,0.51,0.45,0.56l45.08,8.38c0.27,0.05,0.51-0.12,0.54-0.38l0.01-0.17l0.84-9.47l0.01-0.17
				C400.74,275.38,400.54,275.13,400.26,275.08z"/>
		</g>
		<g>
			<polygon class="st2" points="365.94,158.07 297.43,145.33 301.01,105.14 369.52,117.87 			"/>
			<polygon class="st5" points="300.48,111.1 368.99,123.84 369.52,117.87 301.01,105.14 			"/>
			
				<ellipse transform="matrix(0.5882 -0.8087 0.8087 0.5882 37.2553 291.1797)" class="st8" cx="304.55" cy="109.01" rx="1.21" ry="1.36"/>
			
				<ellipse transform="matrix(0.5882 -0.8087 0.8087 0.5882 38.3584 294.9297)" class="st8" cx="308.78" cy="109.8" rx="1.21" ry="1.36"/>
			
				<ellipse transform="matrix(0.5882 -0.8087 0.8087 0.5882 39.4705 298.6813)" class="st8" cx="313.02" cy="110.58" rx="1.21" ry="1.36"/>
			<path class="st4" d="M356.01,152.55l-9.28-1.73c-1.11-0.21-1.95-1.24-1.85-2.3l0.06-0.68c0.09-1.06,1.08-1.76,2.2-1.55l9.28,1.73
				c1.11,0.21,1.95,1.24,1.85,2.3l-0.06,0.68C358.11,152.06,357.12,152.76,356.01,152.55z"/>
			<path class="st8" d="M356.49,128.27l-45.08-8.38c-0.27-0.05-0.51,0.12-0.54,0.38l-0.01,0.17l-0.84,9.47l-0.01,0.17
				c-0.02,0.26,0.18,0.51,0.45,0.56l45.08,8.38c0.27,0.05,0.51-0.12,0.54-0.38l0.01-0.17l0.84-9.47l0.01-0.17
				C356.96,128.57,356.76,128.32,356.49,128.27z"/>
		</g>
	</g>
	<ellipse class="st9" cx="230.22" cy="380.81" rx="53.5" ry="20.9"/>
	<g>
		<path class="st6" d="M154.45,159.83l13.82-0.56c1.37-0.06,2.3-1.14,2.09-2.43l-4.85-28.91c-0.22-1.29-1.5-2.28-2.87-2.23
			l-13.82,0.56c-1.37,0.06-2.3,1.14-2.09,2.43l4.85,28.91C151.79,158.89,153.08,159.88,154.45,159.83z"/>
		<g>
			<g>
				<path id="SVGID_3_" class="st2" d="M164.36,135.78c3.21,1.99-3.86,6.92-4.79,10.17c-0.35,1.24,3.62,7.66,2.88,12.17
					c5.09,8.09,8.59,10.7,11.38,12.22c3.71-8.86,8.24-41.76,16.73-52.13c8.24-10.06,21.81-15.35,21.81-15.35v-6.69
					c0,0-7.24-1.66-9.99-8.6c-3.11-7.85,4.88-44.14,4.88-44.14s-9.46-7.35-0.42-13.04c10.11-6.37,34.15,6.69,37.35,14.22
					c1.81,4.24,0.12,11.4-1.7,20.57c0.53-0.08,1.07-0.07,1.6,0.08c2.42,0.69,3.69,3.65,2.85,6.61s-3.49,4.8-5.91,4.11
					c-0.14-0.04-0.26-0.11-0.39-0.17c-0.13,0.91-0.25,1.84-0.36,2.77c-1.4,12.02-0.19,23.97-0.19,23.97s21.25,6.12,28.85,19.26
					c9.35,16.16,16.59,83,13.59,120.47c-1.17,14.65-5.86,22.86-9.2,22.25c-4.31-0.79-0.84-12.12-2.7-22.16
					c-2.88,4.09-0.73,10.48-3.76,10.45c-1.76-0.01-1.92-7.51-1.18-13.99c0.4-3.49,1.77-6.69,1.7-8.26
					c-0.19-44.78-12.33-77.7-12.33-77.7l0.67,39.25l2.95,173.58c0,0,20.95,4.46,22.44,16.35c-6.69,5.39-42.28-5.95-42.28-5.95
					l-10.82-139.89l-4.72,140.91c0,0-19.49,7.66-40.12,4.92c-2.37-9.66,18.4-14.96,18.4-14.96l-3.11-172.65l-0.77-42.66
					c0,0-7.95,38.53-20.14,40.06c-17.29,2.17-32.73-44.05-32.73-49.07c0-6.32,9.33-12.54,10.58-9.8c0.78,1.71-6.04,4.03-5.71,8.59
					C153.35,136.85,161.53,134.02,164.36,135.78z"/>
			</g>
			<g>
				<defs>
					<path id="SVGID_4_" d="M164.36,135.78c3.21,1.99-3.86,6.92-4.79,10.17c-0.35,1.24,3.62,7.66,2.88,12.17
						c5.09,8.09,8.59,10.7,11.38,12.22c3.71-8.86,8.24-41.76,16.73-52.13c8.24-10.06,21.81-15.35,21.81-15.35v-6.69
						c0,0-7.24-1.66-9.99-8.6c-3.11-7.85,4.88-44.14,4.88-44.14s-9.46-7.35-0.42-13.04c10.11-6.37,34.15,6.69,37.35,14.22
						c1.81,4.24,0.12,11.4-1.7,20.57c0.53-0.08,1.07-0.07,1.6,0.08c2.42,0.69,3.69,3.65,2.85,6.61s-3.49,4.8-5.91,4.11
						c-0.14-0.04-0.26-0.11-0.39-0.17c-0.13,0.91-0.25,1.84-0.36,2.77c-1.4,12.02-0.19,23.97-0.19,23.97s21.25,6.12,28.85,19.26
						c9.35,16.16,16.59,83,13.59,120.47c-1.17,14.65-5.86,22.86-9.2,22.25c-4.31-0.79-0.84-12.12-2.7-22.16
						c-2.88,4.09-0.73,10.48-3.76,10.45c-1.76-0.01-1.92-7.51-1.18-13.99c0.4-3.49,1.77-6.69,1.7-8.26
						c-0.19-44.78-12.33-77.7-12.33-77.7l0.67,39.25l2.95,173.58c0,0,20.95,4.46,22.44,16.35c-6.69,5.39-42.28-5.95-42.28-5.95
						l-10.82-139.89l-4.72,140.91c0,0-19.49,7.66-40.12,4.92c-2.37-9.66,18.4-14.96,18.4-14.96l-3.11-172.65l-0.77-42.66
						c0,0-7.95,38.53-20.14,40.06c-17.29,2.17-32.73-44.05-32.73-49.07c0-6.32,9.33-12.54,10.58-9.8c0.78,1.71-6.04,4.03-5.71,8.59
						C153.35,136.85,161.53,134.02,164.36,135.78z"/>
				</defs>
				<clipPath id="SVGID_5_">
					<use xlink:href="#SVGID_4_"  style="overflow:visible;"/>
				</clipPath>
				<path class="st10" d="M163.62,134.88c6.6,6.88,2.04,17.78,1.25,20.12c5.48,14.31,6.29,3.16,8.09,4.55
					c3.71-8.86,9.11-30.96,17.61-41.33c8.24-10.06,21.81-15.35,21.81-15.35v-6.69c0,0-7.24-1.66-9.99-8.6
					c-3.11-7.85,2.79-41.02,2.79-41.02s-8.5-9.9,1.67-16.17S241,37.08,244.2,44.61c1.81,4.24,0.12,11.4-1.7,20.57
					c0.53-0.08,1.07-0.07,1.6,0.08c2.42,0.69,3.69,3.65,2.85,6.61s-3.49,4.8-5.91,4.11c-0.14-0.04-0.26-0.11-0.39-0.17
					c-0.13,0.91-0.25,1.84-0.36,2.77c-1.4,12.02-0.19,23.97-0.19,23.97s21.25,6.12,28.85,19.26c13,22.47,27.32,158.05,1.95,150.24
					c-4.19-1.29-6.88-2.82-7.14-10.26c0.01,0-1.65-0.46-1.86-7.06c-0.17-5.26,2.64-13.34,2.6-21.93
					c-0.19-44.78-8.37-74.22-8.37-74.22l0.81,37.04l-59.72,1.78l-0.97-37.57c0,0-8.5,36.59-20.69,38.13
					c-17.29,2.17-32.89-44.19-33.71-49.14C140.2,138.72,155.29,126.2,163.62,134.88z"/>
			</g>
			<g>
				<defs>
					<path id="SVGID_6_" d="M164.36,135.78c3.21,1.99-3.86,6.92-4.79,10.17c-0.35,1.24,3.62,7.66,2.88,12.17
						c5.09,8.09,8.59,10.7,11.38,12.22c3.71-8.86,8.24-41.76,16.73-52.13c8.24-10.06,21.81-15.35,21.81-15.35v-6.69
						c0,0-7.24-1.66-9.99-8.6c-3.11-7.85,4.88-44.14,4.88-44.14s-9.46-7.35-0.42-13.04c10.11-6.37,34.15,6.69,37.35,14.22
						c1.81,4.24,0.12,11.4-1.7,20.57c0.53-0.08,1.07-0.07,1.6,0.08c2.42,0.69,3.69,3.65,2.85,6.61s-3.49,4.8-5.91,4.11
						c-0.14-0.04-0.26-0.11-0.39-0.17c-0.13,0.91-0.25,1.84-0.36,2.77c-1.4,12.02-0.19,23.97-0.19,23.97s21.25,6.12,28.85,19.26
						c9.35,16.16,16.59,83,13.59,120.47c-1.17,14.65-5.86,22.86-9.2,22.25c-4.31-0.79-0.84-12.12-2.7-22.16
						c-2.88,4.09-0.73,10.48-3.76,10.45c-1.76-0.01-1.92-7.51-1.18-13.99c0.4-3.49,1.77-6.69,1.7-8.26
						c-0.19-44.78-12.33-77.7-12.33-77.7l0.67,39.25l2.95,173.58c0,0,20.95,4.46,22.44,16.35c-6.69,5.39-42.28-5.95-42.28-5.95
						l-10.82-139.89l-4.72,140.91c0,0-19.49,7.66-40.12,4.92c-2.37-9.66,18.4-14.96,18.4-14.96l-3.11-172.65l-0.77-42.66
						c0,0-7.95,38.53-20.14,40.06c-17.29,2.17-32.73-44.05-32.73-49.07c0-6.32,9.33-12.54,10.58-9.8c0.78,1.71-6.04,4.03-5.71,8.59
						C153.35,136.85,161.53,134.02,164.36,135.78z"/>
				</defs>
				<clipPath id="SVGID_7_">
					<use xlink:href="#SVGID_6_"  style="overflow:visible;"/>
				</clipPath>
				<ellipse class="st11" cx="232.17" cy="374.5" rx="65.5" ry="28.85"/>
			</g>
			<g>
				<defs>
					<path id="SVGID_8_" d="M164.36,135.78c3.21,1.99-3.86,6.92-4.79,10.17c-0.35,1.24,3.62,7.66,2.88,12.17
						c5.09,8.09,8.59,10.7,11.38,12.22c3.71-8.86,8.24-41.76,16.73-52.13c8.24-10.06,21.81-15.35,21.81-15.35v-6.69
						c0,0-7.24-1.66-9.99-8.6c-3.11-7.85,4.88-44.14,4.88-44.14s-9.46-7.35-0.42-13.04c10.11-6.37,34.15,6.69,37.35,14.22
						c1.81,4.24,0.12,11.4-1.7,20.57c0.53-0.08,1.07-0.07,1.6,0.08c2.42,0.69,3.69,3.65,2.85,6.61s-3.49,4.8-5.91,4.11
						c-0.14-0.04-0.26-0.11-0.39-0.17c-0.13,0.91-0.25,1.84-0.36,2.77c-1.4,12.02-0.19,23.97-0.19,23.97s21.25,6.12,28.85,19.26
						c9.35,16.16,16.59,83,13.59,120.47c-1.17,14.65-5.86,22.86-9.2,22.25c-4.31-0.79-0.84-12.12-2.7-22.16
						c-2.88,4.09-0.73,10.48-3.76,10.45c-1.76-0.01-1.92-7.51-1.18-13.99c0.4-3.49,1.77-6.69,1.7-8.26
						c-0.19-44.78-12.33-77.7-12.33-77.7l0.67,39.25l2.95,173.58c0,0,20.95,4.46,22.44,16.35c-6.69,5.39-42.28-5.95-42.28-5.95
						l-10.82-139.89l-4.72,140.91c0,0-19.49,7.66-40.12,4.92c-2.37-9.66,18.4-14.96,18.4-14.96l-3.11-172.65l-0.77-42.66
						c0,0-7.95,38.53-20.14,40.06c-17.29,2.17-32.73-44.05-32.73-49.07c0-6.32,9.33-12.54,10.58-9.8c0.78,1.71-6.04,4.03-5.71,8.59
						C153.35,136.85,161.53,134.02,164.36,135.78z"/>
				</defs>
				<clipPath id="SVGID_9_">
					<use xlink:href="#SVGID_8_"  style="overflow:visible;"/>
				</clipPath>
				<path class="st12" d="M269.62,349.55l-8.92,16.17c0,0-3.16,2.23-10.03,2.6c-6.88,0.37-12.63-1.84-12.63-1.84l-10.42-110.21
					l-1.3,109.08l-2.73,2.04c0,0-4.88,2.42-12.69,2.05c-7.8-0.37-9.29-2.32-9.29-2.32L178.2,270.4l13.75-68.01l51.66-5.95
					l16.35,8.92l0.74,23.04l1.31,74.12L269.62,349.55z"/>
			</g>
			<g>
				<defs>
					<path id="SVGID_10_" d="M164.36,135.78c3.21,1.99-3.86,6.92-4.79,10.17c-0.35,1.24,3.62,7.66,2.88,12.17
						c5.09,8.09,8.59,10.7,11.38,12.22c3.71-8.86,8.24-41.76,16.73-52.13c8.24-10.06,21.81-15.35,21.81-15.35v-6.69
						c0,0-7.24-1.66-9.99-8.6c-3.11-7.85,4.88-44.14,4.88-44.14s-9.46-7.35-0.42-13.04c10.11-6.37,34.15,6.69,37.35,14.22
						c1.81,4.24,0.12,11.4-1.7,20.57c0.53-0.08,1.07-0.07,1.6,0.08c2.42,0.69,3.69,3.65,2.85,6.61s-3.49,4.8-5.91,4.11
						c-0.14-0.04-0.26-0.11-0.39-0.17c-0.13,0.91-0.25,1.84-0.36,2.77c-1.4,12.02-0.19,23.97-0.19,23.97s21.25,6.12,28.85,19.26
						c9.35,16.16,16.59,83,13.59,120.47c-1.17,14.65-5.86,22.86-9.2,22.25c-4.31-0.79-0.84-12.12-2.7-22.16
						c-2.88,4.09-0.73,10.48-3.76,10.45c-1.76-0.01-1.92-7.51-1.18-13.99c0.4-3.49,1.77-6.69,1.7-8.26
						c-0.19-44.78-12.33-77.7-12.33-77.7l0.67,39.25l2.95,173.58c0,0,20.95,4.46,22.44,16.35c-6.69,5.39-42.28-5.95-42.28-5.95
						l-10.82-139.89l-4.72,140.91c0,0-19.49,7.66-40.12,4.92c-2.37-9.66,18.4-14.96,18.4-14.96l-3.11-172.65l-0.77-42.66
						c0,0-7.95,38.53-20.14,40.06c-17.29,2.17-32.73-44.05-32.73-49.07c0-6.32,9.33-12.54,10.58-9.8c0.78,1.71-6.04,4.03-5.71,8.59
						C153.35,136.85,161.53,134.02,164.36,135.78z"/>
				</defs>
				<clipPath id="SVGID_11_">
					<use xlink:href="#SVGID_10_"  style="overflow:visible;"/>
				</clipPath>
				<path class="st13" d="M171.96,147.6c0,0,4.46,5.85,11.91,9.13c5.45,2.4,12.41,3.1,12.41,3.1l-2.7,51.18
					c0,0,11.02,3.32,32.76,3.37c15.39,0.04,32.31-3.37,32.31-3.37l-2-50.64c0,0,6.44,1.42,13.31-0.07
					c6.79-1.47,11.82-5.04,11.82-5.04l-3.34-30.1l-13.38-23.69l-24.95,1.09c0,0,0.9,4.29-1.23,8.39c-2.13,4.1-7.3,8.01-15.07,7.24
					c-14.22-1.39-11.43-15.33-11.43-15.33l-28.71-1.39l-15.33,18.68L171.96,147.6z"/>
			</g>
			<g>
				<defs>
					<path id="SVGID_12_" d="M164.36,135.78c3.21,1.99-3.86,6.92-4.79,10.17c-0.35,1.24,3.62,7.66,2.88,12.17
						c5.09,8.09,8.59,10.7,11.38,12.22c3.71-8.86,8.24-41.76,16.73-52.13c8.24-10.06,21.81-15.35,21.81-15.35v-6.69
						c0,0-7.24-1.66-9.99-8.6c-3.11-7.85,4.88-44.14,4.88-44.14s-9.46-7.35-0.42-13.04c10.11-6.37,34.15,6.69,37.35,14.22
						c1.81,4.24,0.12,11.4-1.7,20.57c0.53-0.08,1.07-0.07,1.6,0.08c2.42,0.69,3.69,3.65,2.85,6.61s-3.49,4.8-5.91,4.11
						c-0.14-0.04-0.26-0.11-0.39-0.17c-0.13,0.91-0.25,1.84-0.36,2.77c-1.4,12.02-0.19,23.97-0.19,23.97s21.25,6.12,28.85,19.26
						c9.35,16.16,16.59,83,13.59,120.47c-1.17,14.65-5.86,22.86-9.2,22.25c-4.31-0.79-0.84-12.12-2.7-22.16
						c-2.88,4.09-0.73,10.48-3.76,10.45c-1.76-0.01-1.92-7.51-1.18-13.99c0.4-3.49,1.77-6.69,1.7-8.26
						c-0.19-44.78-12.33-77.7-12.33-77.7l0.67,39.25l2.95,173.58c0,0,20.95,4.46,22.44,16.35c-6.69,5.39-42.28-5.95-42.28-5.95
						l-10.82-139.89l-4.72,140.91c0,0-19.49,7.66-40.12,4.92c-2.37-9.66,18.4-14.96,18.4-14.96l-3.11-172.65l-0.77-42.66
						c0,0-7.95,38.53-20.14,40.06c-17.29,2.17-32.73-44.05-32.73-49.07c0-6.32,9.33-12.54,10.58-9.8c0.78,1.71-6.04,4.03-5.71,8.59
						C153.35,136.85,161.53,134.02,164.36,135.78z"/>
				</defs>
				<clipPath id="SVGID_13_">
					<use xlink:href="#SVGID_12_"  style="overflow:visible;"/>
				</clipPath>
				<path class="st14" d="M248.76,56.73c0,0-5.43,4.83-6.25,8.45c-1.77,7.84-3.15,15.64-4.9,20.26
					c-2.33,6.16-12.22,14.82-25.23,10.73c-17.35-5.45-18.82-10.87-18.82-10.87l6.27-17.28l2.79,9.22c0,0,2.65,8.62,12.82,10.43
					c10.17,1.81,17.7-4.04,19.51-8.36s4.65-18.44,4.18-25.69c-0.29-4.51-4.29-10.09-9.77-10.7c-8.84-0.98-9.12,3.17-23.34,0.27
					c-9.72-1.98-13.72-9.46-13.72-9.46l20.07-15.75l35.12,9.2l4.32,13.8L248.76,56.73z"/>
			</g>
			<path class="st15" d="M218.42,90.47c0,0,1.37-4.2-0.05-6.29c-1.16-1.7-5.44-2.34-6.83-1.7c-1.82,0.83-2.14,5.11-2.14,5.11
				L218.42,90.47z"/>
			<path class="st15" d="M222.99,82.42c-0.57,0.41-4.36-1.37-8.72-2.21c-3.46-0.67-5.12-0.2-6.17-0.95c-1.41-1-1.49-5.67,2.51-6.69
				c5.27-1.35,12.1,1.99,13.47,5.34C225.2,80.63,224.02,81.69,222.99,82.42z"/>
			<path class="st16" d="M217.51,53.99c-1.03,5.72-4.25,12.45-5.49,14.22c0.69,1.11,4.23,3.16,4.23,3.16s-4.39-1.35-5.99-2.95
				C212.38,66.62,214.79,62.28,217.51,53.99z"/>
			<ellipse transform="matrix(0.1426 -0.9898 0.9898 0.1426 135.0282 275.4309)" cx="226.49" cy="59.78" rx="2.56" ry="1.58"/>
			<ellipse transform="matrix(0.1426 -0.9898 0.9898 0.1426 121.9052 257.789)" cx="209.75" cy="58.53" rx="2.56" ry="1.3"/>
			<path d="M232.17,60.17c0,0-3.97-3.72-7.04-2.46c0,0,0.56-1.93,3.21-1.37C229.64,56.61,231.18,58.04,232.17,60.17z"/>
			<path class="st15" d="M234.63,54.87c0,0-5.68-5.49-10.06-3.63c0,0,0.8-2.85,4.58-2.02C231.02,49.62,233.21,51.73,234.63,54.87z"
				/>
			<path d="M208.04,57.57c0,0,2.48-2.51,5.43-0.6c0,0-0.39-1.91-2.4-1.91C209.89,55.07,208.43,55.86,208.04,57.57z"/>
			<path class="st15" d="M208.55,51.41c0,0,2.77-3.69,6.58-1.6c0,0-0.51-2.07-2.89-1.96C210.87,47.91,208.96,49.39,208.55,51.41z"/>
		</g>
		<path class="st1" d="M237.63,57.46c-0.08-0.12-0.21-0.2-0.35-0.22L235.45,57c-0.7-1.89-3.81-2.68-8.21-3.23
			c-5.67-0.71-7.52,0.75-8.12,1.87c-0.79-0.58-1.99-1.02-3.29-0.35c-0.08-0.25-0.2-0.48-0.37-0.7c-0.9-1.13-3.05-1.83-6.77-2.2
			c-2.51-0.25-5.8-0.33-7.08,1.42l-1.82-0.21c-0.14-0.02-0.28,0.03-0.39,0.12c-0.11,0.1-0.17,0.23-0.17,0.37v1.37
			c0,0.22,0.14,0.41,0.35,0.48l1.32,0.41c-0.36,2.71-0.69,7.7,0.82,9c1.22,1.05,3.87,1.65,6.25,1.65c1.51,0,2.92-0.24,3.78-0.76
			c1.9-1.15,3.72-8.19,4.11-9.78c1.38-1.07,2.57-0.15,2.96,0.24c-0.1,1.55-0.42,8.69,1.59,10.32c1.27,1.03,4.18,1.71,6.85,1.71
			c1.61,0,3.14-0.25,4.16-0.82c2.17-1.22,3.51-5.52,3.99-8.26l1.49-0.08c0.22-0.01,0.4-0.16,0.46-0.38l0.34-1.32
			C237.74,57.73,237.71,57.58,237.63,57.46z M211.24,65.38c-1.88,1.13-7.18,0.66-8.86-0.79c-1.2-1.03-0.77-7.5-0.23-9.61
			c0.14-0.54,0.55-2.18,6.45-1.6c3.34,0.33,5.39,0.95,6.09,1.83c0.21,0.27,0.29,0.55,0.26,0.84
			C214.17,59.25,212.49,64.62,211.24,65.38z M230.94,67.03c-2.32,1.3-8.13,0.63-9.89-0.79c-1.3-1.05-1.43-6.5-1.21-9.66
			c0.13-1.04,1.45-1.99,4.63-1.99c0.77,0,1.65,0.06,2.65,0.18c5.15,0.64,7.46,1.59,7.48,3.07
			C234.64,59.88,233.08,65.83,230.94,67.03z"/>
	</g>
</g>
</svg>
